<svg width="158" height="15" viewBox="0 0 158 15" fill="none" xmlns="http://www.w3.org/2000/svg">
<path d="M3.51525 10.352H5.78725V7.472H8.68325V5.264H5.78725V2.384H3.51525V5.264H0.61925V7.472H3.51525V10.352ZM11.1096 12H13.8936L18.9176 2.656V0.799999H10.8536V2.928H16.1176L11.1096 12ZM29.8448 14.256L30.9168 12.64C28.7568 11.136 27.8288 9.664 27.8288 7.408C27.8288 5.152 28.7568 3.68 30.9168 2.176L29.8448 0.559999C26.9008 2.16 25.4128 4.336 25.4128 7.408C25.4128 10.48 26.9008 12.656 29.8448 14.256ZM36.4258 12.192C39.6098 12.192 41.3218 9.712 41.3218 6.08C41.3218 3.84 40.7938 2.624 39.9938 1.824C39.1458 0.976 38.2658 0.608 36.7618 0.608C34.2338 0.608 32.4898 2.272 32.4898 4.528C32.4898 6.832 34.0578 8.176 36.4898 8.176C37.4658 8.176 38.2178 7.872 38.7618 7.408C38.6018 8.912 37.8658 9.952 36.4898 9.952C35.5458 9.952 34.8578 9.648 34.0418 8.992L32.7458 10.864C33.6898 11.648 34.7938 12.192 36.4258 12.192ZM36.8898 6.128C35.6738 6.128 34.9378 5.44 34.9378 4.448C34.9378 3.424 35.6258 2.72 36.8418 2.72C38.0738 2.72 38.8098 3.44 38.8098 4.432C38.8098 5.424 38.1058 6.128 36.8898 6.128ZM42.8153 12H51.1033V9.872H46.2233L48.0473 8.464C50.0312 6.928 50.9913 6 50.9913 4.128C50.9913 2 49.4553 0.639999 47.1353 0.639999C45.1353 0.639999 44.0633 1.456 42.9593 2.96L44.6873 4.352C45.5193 3.328 46.1113 2.848 46.9753 2.848C47.8553 2.848 48.4793 3.36 48.4793 4.304C48.4793 5.232 47.9353 5.84 46.5433 6.992L42.8153 10.048V12ZM57.04 12.16C59.52 12.16 61.36 10.944 61.36 8.864C61.36 7.504 60.688 6.784 59.552 6.192C60.416 5.664 60.976 4.944 60.976 3.744C60.976 1.984 59.408 0.639999 57.04 0.639999C54.672 0.639999 53.104 2 53.104 3.712C53.104 4.944 53.664 5.664 54.528 6.192C53.344 6.736 52.72 7.536 52.72 8.896C52.72 10.88 54.56 12.16 57.04 12.16ZM57.04 5.376C56.064 5.376 55.44 4.784 55.44 4C55.44 3.28 56.032 2.672 57.04 2.672C58.048 2.672 58.64 3.296 58.64 3.984C58.64 4.8 58.016 5.376 57.04 5.376ZM57.04 10.128C55.824 10.128 55.104 9.504 55.104 8.736C55.104 7.84 55.92 7.328 57.04 7.328C58.16 7.328 58.976 7.84 58.976 8.704C58.976 9.52 58.256 10.128 57.04 10.128ZM63.8221 14.256C66.7661 12.656 68.2541 10.48 68.2541 7.408C68.2541 4.336 66.7661 2.16 63.8221 0.559999L62.7501 2.176C64.9101 3.68 65.8381 5.152 65.8381 7.408C65.8381 9.664 64.9101 11.136 62.7501 12.64L63.8221 14.256ZM76.848 12H79.28V0.719999H77.6L74.384 1.68L74.896 3.696L76.848 3.216V12ZM86.574 12.192C89.566 12.192 91.566 9.648 91.566 6.4C91.566 3.12 89.566 0.608 86.606 0.608C83.63 0.608 81.614 3.152 81.614 6.4C81.614 9.68 83.582 12.192 86.574 12.192ZM86.606 9.968C85.118 9.968 84.142 8.448 84.142 6.4C84.142 4.32 85.102 2.832 86.574 2.832C88.046 2.832 89.038 4.368 89.038 6.4C89.038 8.464 88.094 9.968 86.606 9.968ZM93.3753 12H96.1593L101.183 2.656V0.799999H93.1193V2.928H98.3833L93.3753 12ZM102.253 8.208H107.181V5.872H102.253V8.208ZM113.024 12.16C115.504 12.16 117.344 10.944 117.344 8.864C117.344 7.504 116.672 6.784 115.536 6.192C116.4 5.664 116.96 4.944 116.96 3.744C116.96 1.984 115.392 0.639999 113.024 0.639999C110.656 0.639999 109.088 2 109.088 3.712C109.088 4.944 109.648 5.664 110.512 6.192C109.328 6.736 108.704 7.536 108.704 8.896C108.704 10.88 110.544 12.16 113.024 12.16ZM113.024 5.376C112.048 5.376 111.424 4.784 111.424 4C111.424 3.28 112.016 2.672 113.024 2.672C114.032 2.672 114.624 3.296 114.624 3.984C114.624 4.8 114 5.376 113.024 5.376ZM113.024 10.128C111.808 10.128 111.088 9.504 111.088 8.736C111.088 7.84 111.904 7.328 113.024 7.328C114.144 7.328 114.96 7.84 114.96 8.704C114.96 9.52 114.24 10.128 113.024 10.128ZM123.887 12.192C126.878 12.192 128.879 9.648 128.879 6.4C128.879 3.12 126.878 0.608 123.919 0.608C120.943 0.608 118.927 3.152 118.927 6.4C118.927 9.68 120.895 12.192 123.887 12.192ZM123.919 9.968C122.431 9.968 121.455 8.448 121.455 6.4C121.455 4.32 122.415 2.832 123.887 2.832C125.359 2.832 126.351 4.368 126.351 6.4C126.351 8.464 125.407 9.968 123.919 9.968ZM130.55 8.208H135.478V5.872H130.55V8.208ZM141.321 12.16C143.801 12.16 145.641 10.944 145.641 8.864C145.641 7.504 144.969 6.784 143.833 6.192C144.697 5.664 145.257 4.944 145.257 3.744C145.257 1.984 143.689 0.639999 141.321 0.639999C138.953 0.639999 137.385 2 137.385 3.712C137.385 4.944 137.945 5.664 138.809 6.192C137.625 6.736 137.001 7.536 137.001 8.896C137.001 10.88 138.841 12.16 141.321 12.16ZM141.321 5.376C140.345 5.376 139.721 4.784 139.721 4C139.721 3.28 140.313 2.672 141.321 2.672C142.329 2.672 142.921 3.296 142.921 3.984C142.921 4.8 142.297 5.376 141.321 5.376ZM141.321 10.128C140.105 10.128 139.385 9.504 139.385 8.736C139.385 7.84 140.201 7.328 141.321 7.328C142.441 7.328 143.257 7.84 143.257 8.704C143.257 9.52 142.537 10.128 141.321 10.128ZM152.183 12.192C155.175 12.192 157.175 9.648 157.175 6.4C157.175 3.12 155.175 0.608 152.215 0.608C149.239 0.608 147.223 3.152 147.223 6.4C147.223 9.68 149.191 12.192 152.183 12.192ZM152.215 9.968C150.727 9.968 149.751 8.448 149.751 6.4C149.751 4.32 150.711 2.832 152.183 2.832C153.655 2.832 154.647 4.368 154.647 6.4C154.647 8.464 153.703 9.968 152.215 9.968Z" fill="#3CA255"/>
</svg>
