<svg width="86" height="15" viewBox="0 0 86 15" fill="none" xmlns="http://www.w3.org/2000/svg">
<path d="M3.98369 12.08H6.12769L8.65569 4.752L11.1837 12.08H13.3277L17.1517 0.799999H14.5757L12.2557 8.384L9.74369 0.768H7.63169L5.11969 8.384L2.79969 0.799999H0.159688L3.98369 12.08ZM18.7208 12H21.1528V7.216C21.1528 6.064 21.7448 5.472 22.6728 5.472C23.6008 5.472 24.1448 6.064 24.1448 7.216V12H26.5768V6.448C26.5768 4.48 25.5048 3.264 23.6648 3.264C22.4328 3.264 21.7128 3.92 21.1528 4.64V0.32H18.7208V12ZM31.1216 12.16C32.3056 12.16 33.1216 11.728 33.7136 11.072V12H36.0656V7.024C36.0656 5.872 35.7776 4.928 35.1376 4.288C34.5296 3.68 33.5696 3.328 32.2416 3.328C30.7856 3.328 29.8576 3.6 28.9136 4.016L29.5216 5.872C30.3056 5.584 30.9616 5.408 31.8896 5.408C33.1056 5.408 33.7296 5.968 33.7296 6.976V7.12C33.1216 6.912 32.4976 6.768 31.6336 6.768C29.6016 6.768 28.1776 7.632 28.1776 9.504C28.1776 11.232 29.5056 12.16 31.1216 12.16ZM31.8576 10.48C31.0736 10.48 30.5296 10.096 30.5296 9.44C30.5296 8.64 31.1696 8.224 32.2096 8.224C32.8016 8.224 33.3456 8.352 33.7616 8.544V8.976C33.7616 9.856 32.9936 10.48 31.8576 10.48ZM40.9762 12.144C41.7922 12.144 42.3842 11.952 42.8962 11.648V9.696C42.5442 9.888 42.1442 10 41.6962 10C41.1522 10 40.9122 9.728 40.9122 9.168V5.504H42.9282V3.424H40.9122V1.232H38.4802V3.424H37.4562V5.504H38.4802V9.568C38.4802 11.552 39.4882 12.144 40.9762 12.144ZM47.7288 12.16C49.5848 12.16 51.0088 11.296 51.0088 9.392C51.0088 7.792 49.6168 7.216 48.4168 6.816C47.4888 6.496 46.6728 6.272 46.6728 5.792C46.6728 5.424 46.9768 5.168 47.5688 5.168C48.1928 5.168 49.0408 5.472 49.8888 5.968L50.8168 4.288C49.8888 3.664 48.7048 3.296 47.6168 3.296C45.8888 3.296 44.4808 4.272 44.4808 6.016C44.4808 7.712 45.8408 8.272 47.0408 8.624C47.9848 8.912 48.8168 9.088 48.8168 9.616C48.8168 10.032 48.4968 10.288 47.7928 10.288C46.9928 10.288 46.0168 9.936 45.0888 9.264L44.0488 10.864C45.1848 11.76 46.5288 12.16 47.7288 12.16ZM52.0481 12H54.5601L55.5841 9.488H60.3201L61.3441 12H63.9201L59.1201 0.719999H56.8481L52.0481 12ZM56.4641 7.312L57.9521 3.68L59.4401 7.312H56.4641ZM65.3927 14.56H67.8247V10.88C68.4007 11.568 69.2007 12.16 70.4967 12.16C72.5287 12.16 74.4007 10.592 74.4007 7.728C74.4007 4.832 72.4967 3.264 70.4967 3.264C69.2327 3.264 68.4167 3.856 67.8247 4.656V3.424H65.3927V14.56ZM69.8727 10.096C68.7367 10.096 67.7927 9.152 67.7927 7.728C67.7927 6.272 68.7367 5.328 69.8727 5.328C71.0087 5.328 71.9687 6.272 71.9687 7.696C71.9687 9.168 71.0087 10.096 69.8727 10.096ZM76.1896 14.56H78.6216V10.88C79.1976 11.568 79.9976 12.16 81.2936 12.16C83.3256 12.16 85.1976 10.592 85.1976 7.728C85.1976 4.832 83.2936 3.264 81.2936 3.264C80.0296 3.264 79.2136 3.856 78.6216 4.656V3.424H76.1896V14.56ZM80.6696 10.096C79.5336 10.096 78.5896 9.152 78.5896 7.728C78.5896 6.272 79.5336 5.328 80.6696 5.328C81.8056 5.328 82.7656 6.272 82.7656 7.696C82.7656 9.168 81.8056 10.096 80.6696 10.096Z" fill="#3CA255"/>
</svg>
