<svg width="150" height="15" viewBox="0 0 150 15" fill="none" xmlns="http://www.w3.org/2000/svg">
<path d="M5.10144 0.608C2.97344 0.608 1.62944 1.36 0.589438 2.448L1.88544 4.016C2.63744 3.248 3.53344 2.784 4.90944 2.784C5.98144 2.784 6.71744 3.248 6.71744 4.032C6.71744 4.88 6.01344 5.328 4.71744 5.328H3.45344V7.376H4.74944C6.02944 7.376 6.97344 7.76 6.97344 8.688C6.97344 9.552 6.12544 10.032 5.08544 10.032C3.62944 10.032 2.42944 9.504 1.51744 8.608L0.205438 10.32C1.40544 11.536 2.82944 12.192 5.18144 12.192C7.78944 12.192 9.43744 10.768 9.43744 8.832C9.43744 7.408 8.54144 6.576 7.34144 6.192C8.33344 5.76 9.14944 5.008 9.14944 3.616C9.14944 1.872 7.50144 0.608 5.10144 0.608ZM13.7622 12.16C14.9462 12.16 15.7622 11.728 16.3542 11.072V12H18.7062V7.024C18.7062 5.872 18.4182 4.928 17.7782 4.288C17.1702 3.68 16.2102 3.328 14.8822 3.328C13.4262 3.328 12.4982 3.6 11.5542 4.016L12.1622 5.872C12.9462 5.584 13.6022 5.408 14.5302 5.408C15.7462 5.408 16.3702 5.968 16.3702 6.976V7.12C15.7622 6.912 15.1382 6.768 14.2742 6.768C12.2422 6.768 10.8182 7.632 10.8182 9.504C10.8182 11.232 12.1462 12.16 13.7622 12.16ZM14.4982 10.48C13.7142 10.48 13.1702 10.096 13.1702 9.44C13.1702 8.64 13.8102 8.224 14.8502 8.224C15.4422 8.224 15.9862 8.352 16.4022 8.544V8.976C16.4022 9.856 15.6342 10.48 14.4982 10.48ZM28.3989 3.424H23.9029C21.6629 3.424 20.4309 4.576 20.4309 6.288C20.4309 7.616 21.1349 8.432 22.2229 8.848L20.0309 12H22.8469L24.6549 9.248H25.9669V12H28.3989V3.424ZM24.3189 7.488C23.4389 7.488 22.8949 7.104 22.8949 6.416C22.8949 5.712 23.4229 5.328 24.3029 5.328H25.9669V7.488H24.3189ZM30.5802 3.424V12H35.2682C37.2522 12 38.4682 11.12 38.4682 9.664C38.4682 8.464 37.8282 7.824 36.7882 7.504C37.5242 7.184 38.1482 6.608 38.1482 5.568C38.1482 4.224 37.0122 3.424 35.2842 3.424H30.5802ZM32.9802 6.864V5.216H34.7242C35.4282 5.216 35.7162 5.584 35.7162 6C35.7162 6.496 35.3802 6.864 34.6922 6.864H32.9802ZM32.9802 10.096V8.4H34.8362C35.6682 8.4 36.0042 8.768 36.0042 9.232C36.0042 9.744 35.6522 10.096 34.9002 10.096H32.9802ZM40.1739 12H42.6059V9.936L43.7099 8.736L45.9979 12H48.8779L45.3259 6.944L48.4779 3.424H45.6779L42.6059 6.944V3.424H40.1739V12ZM52.3872 12.16C53.5712 12.16 54.3872 11.728 54.9792 11.072V12H57.3312V7.024C57.3312 5.872 57.0432 4.928 56.4032 4.288C55.7952 3.68 54.8352 3.328 53.5072 3.328C52.0512 3.328 51.1232 3.6 50.1792 4.016L50.7872 5.872C51.5712 5.584 52.2272 5.408 53.1552 5.408C54.3712 5.408 54.9952 5.968 54.9952 6.976V7.12C54.3872 6.912 53.7632 6.768 52.8992 6.768C50.8672 6.768 49.4432 7.632 49.4432 9.504C49.4432 11.232 50.7712 12.16 52.3872 12.16ZM53.1232 10.48C52.3392 10.48 51.7952 10.096 51.7952 9.44C51.7952 8.64 52.4352 8.224 53.4752 8.224C54.0672 8.224 54.6112 8.352 55.0272 8.544V8.976C55.0272 9.856 54.2592 10.48 53.1232 10.48ZM72.0768 3.424H69.6448V6.72H66.6528V3.424H64.2208V12H66.6528V8.72H69.6448V12H72.0768V3.424ZM76.6841 12.16C77.8681 12.16 78.6841 11.728 79.2761 11.072V12H81.6281V7.024C81.6281 5.872 81.3401 4.928 80.7001 4.288C80.0921 3.68 79.1321 3.328 77.8041 3.328C76.3481 3.328 75.4201 3.6 74.4761 4.016L75.0841 5.872C75.8681 5.584 76.5241 5.408 77.4521 5.408C78.6681 5.408 79.2921 5.968 79.2921 6.976V7.12C78.6841 6.912 78.0601 6.768 77.1961 6.768C75.1641 6.768 73.7401 7.632 73.7401 9.504C73.7401 11.232 75.0681 12.16 76.6841 12.16ZM77.4201 10.48C76.6361 10.48 76.0921 10.096 76.0921 9.44C76.0921 8.64 76.7321 8.224 77.7721 8.224C78.3641 8.224 78.9081 8.352 79.3241 8.544V8.976C79.3241 9.856 78.5561 10.48 77.4201 10.48ZM96.3097 3.424H88.5177V12H90.9497V5.504H93.8777V12H96.3097V3.424ZM102.694 12.192C105.366 12.192 107.35 10.192 107.35 7.728C107.35 5.232 105.382 3.264 102.726 3.264C100.054 3.264 98.0704 5.264 98.0704 7.728C98.0704 10.224 100.038 12.192 102.694 12.192ZM102.726 10.096C101.382 10.096 100.47 8.992 100.47 7.728C100.47 6.432 101.302 5.36 102.694 5.36C104.038 5.36 104.95 6.464 104.95 7.728C104.95 9.024 104.118 10.096 102.726 10.096ZM111.575 9.92C112.103 8.656 112.199 7.152 112.215 5.696V5.504H114.503V9.92H111.575ZM115.767 12V14.016H117.815L118.103 9.92H116.935V3.424H109.927V4.16C109.927 6.224 109.815 8.384 109.095 9.92H108.167V14.016H110.215L110.391 12H115.767ZM123.696 10.096C122.496 10.096 121.6 9.104 121.6 7.888C121.6 6.64 122.432 5.648 123.664 5.648C124.864 5.648 125.76 6.656 125.76 7.888C125.76 9.12 124.944 10.096 123.696 10.096ZM123.664 12.192C126.272 12.192 128.16 10.224 128.16 7.856C128.16 5.504 126.272 3.744 124.096 3.744C122.336 3.744 121.296 4.624 120.976 5.184C121.04 4.368 121.472 3.488 123.056 3.168L127.76 2.24L127.376 0.32L122.784 1.168C119.568 1.76 119.184 4.496 119.184 7.072C119.184 10.368 120.768 12.192 123.664 12.192ZM134.101 12.192C136.773 12.192 138.757 10.192 138.757 7.728C138.757 5.232 136.789 3.264 134.133 3.264C131.461 3.264 129.477 5.264 129.477 7.728C129.477 10.224 131.445 12.192 134.101 12.192ZM134.133 10.096C132.789 10.096 131.877 8.992 131.877 7.728C131.877 6.432 132.709 5.36 134.101 5.36C135.445 5.36 136.357 6.464 136.357 7.728C136.357 9.024 135.525 10.096 134.133 10.096ZM140.518 14.56H142.95V10.88C143.526 11.568 144.326 12.16 145.622 12.16C147.654 12.16 149.526 10.592 149.526 7.728C149.526 4.832 147.622 3.264 145.622 3.264C144.358 3.264 143.542 3.856 142.95 4.656V3.424H140.518V14.56ZM144.998 10.096C143.862 10.096 142.918 9.152 142.918 7.728C142.918 6.272 143.862 5.328 144.998 5.328C146.134 5.328 147.094 6.272 147.094 7.696C147.094 9.168 146.134 10.096 144.998 10.096Z" fill="#1C69D4"/>
</svg>
