<svg width="129" height="15" viewBox="0 0 129 15" fill="none" xmlns="http://www.w3.org/2000/svg">
<path d="M0.234625 12H2.69863V3.024H7.11462V12H9.57863V0.799999H0.234625V12ZM14.0579 14.608C15.5139 14.608 16.2179 13.952 16.8739 12.208L20.1699 3.424H17.6419L15.7699 9.264L13.8179 3.424H11.2419L14.6019 12.032C14.3939 12.464 14.1699 12.592 13.7539 12.592C13.4339 12.592 13.0339 12.448 12.7139 12.256L11.8979 14.016C12.5219 14.384 13.1779 14.608 14.0579 14.608ZM29.4596 3.424H27.0276V6.72H24.0356V3.424H21.6036V12H24.0356V8.72H27.0276V12H29.4596V3.424ZM31.6349 12H34.0669V9.936L35.1709 8.736L37.4589 12H40.3389L36.7869 6.944L39.9389 3.424H37.1389L34.0669 6.944V3.424H31.6349V12ZM48.1201 3.424H40.5681V5.504H43.1121V12H45.5761V5.504H48.1201V3.424ZM49.4474 12H53.7674C55.8314 12 57.0634 10.896 57.0634 9.088C57.0634 7.168 55.6234 6.256 53.6394 6.256H51.8794V3.424H49.4474V12ZM53.3994 8.096C54.1994 8.096 54.6154 8.464 54.6154 9.056C54.6154 9.712 54.2154 10.08 53.4154 10.08H51.8794V8.096H53.3994ZM58.1994 12H60.6314V3.424H58.1994V12ZM67.6036 3.424V12H72.2916C74.2756 12 75.4916 11.12 75.4916 9.664C75.4916 8.464 74.8516 7.824 73.8116 7.504C74.5476 7.184 75.1716 6.608 75.1716 5.568C75.1716 4.224 74.0356 3.424 72.3076 3.424H67.6036ZM70.0036 6.864V5.216H71.7476C72.4516 5.216 72.7396 5.584 72.7396 6C72.7396 6.496 72.4036 6.864 71.7156 6.864H70.0036ZM70.0036 10.096V8.4H71.8596C72.6916 8.4 73.0276 8.768 73.0276 9.232C73.0276 9.744 72.6756 10.096 71.9236 10.096H70.0036ZM77.1974 12H81.5174C83.5814 12 84.8134 10.896 84.8134 9.088C84.8134 7.168 83.3734 6.256 81.3894 6.256H79.6294V3.424H77.1974V12ZM81.1494 8.096C81.9494 8.096 82.3654 8.464 82.3654 9.056C82.3654 9.712 81.9654 10.08 81.1654 10.08H79.6294V8.096H81.1494ZM85.9494 12H88.3814V3.424H85.9494V12ZM93.0208 9.92C93.5488 8.656 93.6448 7.152 93.6608 5.696V5.504H95.9488V9.92H93.0208ZM97.2128 12V14.016H99.2608L99.5488 9.92H98.3808V3.424H91.3728V4.16C91.3728 6.224 91.2608 8.384 90.5408 9.92H89.6128V14.016H91.6608L91.8368 12H97.2128ZM103.301 12.16C104.485 12.16 105.301 11.728 105.893 11.072V12H108.245V7.024C108.245 5.872 107.957 4.928 107.317 4.288C106.709 3.68 105.749 3.328 104.421 3.328C102.965 3.328 102.037 3.6 101.093 4.016L101.701 5.872C102.485 5.584 103.141 5.408 104.069 5.408C105.285 5.408 105.909 5.968 105.909 6.976V7.12C105.301 6.912 104.677 6.768 103.813 6.768C101.781 6.768 100.357 7.632 100.357 9.504C100.357 11.232 101.685 12.16 103.301 12.16ZM104.037 10.48C103.253 10.48 102.709 10.096 102.709 9.44C102.709 8.64 103.349 8.224 104.389 8.224C104.981 8.224 105.525 8.352 105.941 8.544V8.976C105.941 9.856 105.173 10.48 104.037 10.48ZM112.562 3.424H110.098V6.8C110.098 8.592 111.378 9.568 113.09 9.568C113.954 9.568 114.818 9.296 115.41 9.008V12H117.858V3.424H115.41V7.104C114.93 7.344 114.402 7.52 113.746 7.52C112.946 7.52 112.562 7.008 112.562 6.112V3.424ZM128.025 3.424H125.737L122.393 8.432V3.424H120.041V12H122.329L125.673 7.008V12H128.025V3.424Z" fill="#1C69D4"/>
</svg>
